<?xml version="1.0" standalone="no"?>
<!DOCTYPE svg PUBLIC "-//W3C//DTD SVG 20010904//EN"
 "http://www.w3.org/TR/2001/REC-SVG-20010904/DTD/svg10.dtd">
<svg version="1.0" xmlns="http://www.w3.org/2000/svg"
 width="562.000000pt" height="562.000000pt" viewBox="0 0 562.000000 562.000000"
 preserveAspectRatio="xMidYMid meet">
<metadata>
Created by potrace 1.11, written by Peter Selinger 2001-2013
</metadata>
<g transform="translate(0.000000,562.000000) scale(0.100000,-0.100000)"
fill="#000000" stroke="none">
<path d="M1104 5195 c-105 -33 -185 -100 -232 -194 l-27 -56 0 -2100 0 -2100
30 -58 c64 -127 189 -201 337 -200 70 0 87 5 151 36 66 33 132 94 775 712
l702 675 703 -675 c812 -782 759 -740 937 -740 86 1 114 5 153 23 66 30 138
101 173 169 l29 58 0 2100 0 2100 -27 56 c-46 93 -129 162 -234 194 -43 13
-268 15 -1739 14 -1344 -1 -1698 -4 -1731 -14z"/>
</g>
</svg>
